<svg xmlns="http://www.w3.org/2000/svg" viewBox="0 0 533.46 505.68"><defs><style>.cls-1{fill:#0d0f25;stroke:#d7df23;stroke-miterlimit:10;stroke-width:6px}.cls-2,.cls-3{fill:#d7df23}.cls-3{font-size:72px;font-family:AddressSansPro-CdRegular,Address Sans Pro;letter-spacing:-.02em}</style></defs><g id="Layer_2" data-name="Layer 2"><g id="Layer_1-2" data-name="Layer 1"><path class="cls-1" d="M32.38 32.22h448.51v417.94H32.38z"/><path class="cls-1" d="M3 3h449.59v417.94H3z"/><path class="cls-2" d="M172.77 206.15V77.2a25 25 0 00-23.09-24.91c-32.72-2.64-43.63 5.42-43.63 33.57v250.66c0 27.83 10.67 36 42.54 33.65a26.14 26.14 0 0024.18-26.07v-88.59h-30.15a2.19 2.19 0 01-2.19-2.19v-1.69a2.25 2.25 0 012.25-2.25h36.89v87.14c0 34-18 40.17-40.5 40.17-22.13 0-39.83-6.13-39.83-40.17V85.86c0-34 17.7-40.17 39.83-40.17 22.46 0 40.5 6.13 40.5 40.17v120.29a3.4 3.4 0 01-3.4 3.4 3.4 3.4 0 01-3.4-3.4zM234.13 74.86a3.41 3.41 0 013.41 3.4V375a3.41 3.41 0 01-3.41 3.4 3.4 3.4 0 01-3.4-3.4V78.26a3.4 3.4 0 013.4-3.4zM234.13 45.55a3.41 3.41 0 013.41 3.45v11.68a3.41 3.41 0 01-3.41 3.41 3.41 3.41 0 01-3.4-3.41V49a3.41 3.41 0 013.4-3.45zM353.28 52.84h-30.63a3.06 3.06 0 00-3.06 3.06v317.72a3.07 3.07 0 01-3.07 3.07h-.68a3.06 3.06 0 01-3.06-3.07V55.9a3.06 3.06 0 00-3.07-3.06h-30.63a3.06 3.06 0 01-3.08-3.07 3.06 3.06 0 013.06-3.06h74.2a3.06 3.06 0 013.07 3.06 3.06 3.06 0 01-3.05 3.07z"/><path class="cls-1" d="M373.17 242.69h157.3v259.99h-157.3z"/><text class="cls-3" transform="translate(398.71 330.8)">C<tspan x="27.22" y="0" letter-spacing="-.02em">O</tspan><tspan x="54.94" y="0">NF</tspan><tspan x="0" y="63.48">/CO</tspan></text><text class="cls-3" transform="translate(395.12 473.45)">.2<tspan x="34.27" y="0" letter-spacing="-.04em">0</tspan><tspan x="61.13" y="0">20</tspan></text><path stroke-width="2" fill="#0d0f25" stroke="#d7df23" stroke-miterlimit="10" d="M399.37 405.47h104.89"/></g></g></svg>