<svg xmlns="http://www.w3.org/2000/svg" viewBox="0 0 533.46 505.68"><defs><style>.cls-1,.cls-6{fill:#0d0f25;stroke:#d7df23;stroke-miterlimit:10;}.cls-1{stroke-width:6px;}.cls-2,.cls-3{fill:#d7df23;}.cls-3{font-size:72px;font-family:AddressSansPro-CdRegular, Address Sans Pro;letter-spacing:-0.02em;}.cls-4{letter-spacing:-0.02em;}.cls-5{letter-spacing:-0.04em;}.cls-6{stroke-width:2px;}</style></defs><title>logo</title><g id="Layer_2" data-name="Layer 2"><g id="Layer_1-2" data-name="Layer 1"><rect class="cls-1" x="32.38" y="32.22" width="448.51" height="417.94"/><rect class="cls-1" x="3" y="3" width="449.59" height="417.94"/><path class="cls-2" d="M172.77,206.15V77.2a25,25,0,0,0-23.09-24.91c-32.72-2.64-43.63,5.42-43.63,33.57V336.52c0,27.83,10.67,36,42.54,33.65a26.14,26.14,0,0,0,24.18-26.07V255.51H142.62a2.19,2.19,0,0,1-2.19-2.19v-1.69a2.25,2.25,0,0,1,2.25-2.25h36.89v87.14c0,34-18,40.17-40.5,40.17-22.13,0-39.83-6.13-39.83-40.17V85.86c0-34,17.7-40.17,39.83-40.17,22.46,0,40.5,6.13,40.5,40.17V206.15a3.4,3.4,0,0,1-3.4,3.4h0A3.4,3.4,0,0,1,172.77,206.15Z"/><path class="cls-2" d="M234.13,74.86h0a3.41,3.41,0,0,1,3.41,3.4V375a3.41,3.41,0,0,1-3.41,3.4h0a3.4,3.4,0,0,1-3.4-3.4V78.26A3.4,3.4,0,0,1,234.13,74.86Z"/><path class="cls-2" d="M234.13,45.55h0A3.41,3.41,0,0,1,237.54,49V60.68a3.41,3.41,0,0,1-3.41,3.41h0a3.41,3.41,0,0,1-3.4-3.41V49A3.41,3.41,0,0,1,234.13,45.55Z"/><path class="cls-2" d="M353.28,52.84H322.65a3.06,3.06,0,0,0-3.06,3.06V373.62a3.07,3.07,0,0,1-3.07,3.07h-.68a3.06,3.06,0,0,1-3.06-3.07V55.9a3.06,3.06,0,0,0-3.07-3.06H279.08A3.06,3.06,0,0,1,276,49.77h0a3.06,3.06,0,0,1,3.06-3.06h74.2a3.06,3.06,0,0,1,3.07,3.06h0A3.06,3.06,0,0,1,353.28,52.84Z"/><rect class="cls-1" x="373.17" y="242.69" width="157.3" height="259.99"/><text class="cls-3" transform="translate(398.71 330.8)">C<tspan class="cls-4" x="27.22" y="0">O</tspan><tspan x="54.94" y="0">NF</tspan><tspan x="0" y="63.48">/CO</tspan></text><text class="cls-3" transform="translate(395.12 473.45)">.2<tspan class="cls-5" x="34.27" y="0">0</tspan><tspan x="61.13" y="0">20</tspan></text><line class="cls-6" x1="399.37" y1="405.47" x2="504.26" y2="405.47"/></g></g></svg>