<svg id="svg" version="1.1" xmlns="http://www.w3.org/2000/svg" xmlns:xlink="http://www.w3.org/1999/xlink" width="400" height="380.2631578947369" viewBox="0, 0, 400,380.2631578947369"><g id="svgg"><path id="path0" d="M3.806 160.038 L 3.806 316.270 14.653 316.270 L 25.500 316.270 25.500 327.117 L 25.500 337.964 151.094 337.964 L 276.689 337.964 276.689 357.374 L 276.689 376.784 336.822 376.784 L 396.955 376.784 396.955 278.402 L 396.955 180.019 378.497 180.019 L 360.038 180.019 360.038 102.759 L 360.038 25.500 349.952 25.500 L 339.867 25.500 339.867 14.653 L 339.867 3.806 171.836 3.806 L 3.806 3.806 3.806 160.038 M334.825 94.289 L 334.921 180.395 305.710 180.492 L 276.499 180.590 276.402 246.337 L 276.306 312.084 142.149 312.084 L 7.992 312.084 7.992 160.038 L 7.992 7.992 171.361 8.087 L 334.729 8.183 334.825 94.289 M355.852 105.043 L 355.852 180.400 347.669 180.400 L 339.486 180.400 339.486 105.043 L 339.486 29.686 347.669 29.686 L 355.852 29.686 355.852 105.043 M100.666 37.674 C 86.585 38.749,79.605 45.209,77.427 59.182 C 76.619 64.366,76.631 254.687,77.440 259.753 C 79.364 271.800,84.170 277.561,94.630 280.355 C 98.887 281.493,111.782 281.885,115.319 280.984 C 116.261 280.744,117.888 280.344,118.934 280.095 C 125.034 278.644,130.156 274.537,132.768 269.002 C 136.101 261.942,136.323 258.712,136.178 219.410 L 136.061 187.821 122.214 187.721 C 107.046 187.612,107.326 187.571,107.326 189.885 C 107.326 192.234,107.133 192.198,119.581 192.198 L 130.923 192.198 130.923 226.297 C 130.923 263.516,131.001 262.082,128.728 266.601 C 125.142 273.728,118.741 276.792,107.326 276.846 C 91.612 276.920,85.205 272.969,82.693 261.656 C 81.770 257.499,81.630 62.622,82.547 58.077 C 84.979 46.019,90.792 42.245,106.937 42.245 C 119.532 42.245,125.533 44.998,128.996 52.364 C 131.005 56.638,130.914 54.071,130.919 106.876 C 130.922 140.832,131.048 156.326,131.327 156.846 C 132.342 158.743,135.102 158.464,135.824 156.393 C 136.393 154.759,136.427 67.817,135.860 62.482 C 133.792 43.014,123.719 35.913,100.666 37.674 M175.161 37.692 C 172.121 38.914,173.131 50.999,176.273 50.999 C 178.311 50.999,178.877 49.509,178.877 44.148 C 178.877 37.987,178.041 36.535,175.161 37.692 M207.951 39.017 C 207.253 39.715,207.062 40.205,207.246 40.825 C 207.771 42.592,208.021 42.626,220.540 42.626 C 230.632 42.626,232.495 42.713,233.217 43.219 L 234.063 43.811 234.063 161.688 C 234.063 265.023,234.132 279.663,234.625 280.367 C 235.411 281.489,236.978 281.809,238.097 281.075 L 239.007 280.480 239.104 162.280 L 239.201 44.081 240.099 43.354 C 240.941 42.672,241.752 42.626,252.849 42.620 C 259.367 42.617,264.889 42.489,265.119 42.335 C 266.605 41.342,266.494 39.298,264.907 38.448 C 264.430 38.193,254.653 38.059,236.544 38.059 L 208.909 38.059 207.951 39.017 M174.638 59.719 L 173.739 60.447 173.739 170.885 L 173.739 281.323 174.638 282.051 C 175.844 283.028,176.820 282.967,177.943 281.844 L 178.877 280.910 178.877 170.953 L 178.877 60.997 178.088 59.994 C 177.154 58.806,175.890 58.705,174.638 59.719 M392.198 278.592 L 392.198 372.027 336.632 372.027 L 281.066 372.027 280.970 278.495 L 280.874 184.964 336.536 185.061 L 392.198 185.157 392.198 278.592 M305.994 210.545 C 300.731 211.330,300.616 211.749,300.748 229.680 C 300.882 247.754,300.862 247.705,308.278 247.745 C 314.220 247.778,315.890 246.100,315.890 240.096 L 315.890 236.346 313.606 236.346 L 311.323 236.346 311.323 239.515 C 311.323 243.221,310.608 244.343,308.253 244.333 C 305.310 244.320,305.233 243.933,305.233 229.115 C 305.233 214.208,305.294 213.910,308.358 213.897 C 310.688 213.888,311.323 214.920,311.323 218.721 L 311.323 221.884 313.606 221.884 L 315.890 221.884 315.890 218.134 C 315.890 211.696,313.023 209.497,305.994 210.545 M324.507 210.858 C 320.971 211.917,320.837 212.591,320.837 229.331 C 320.837 247.777,320.833 247.766,328.529 247.763 C 335.930 247.760,335.871 247.911,335.871 229.102 L 335.871 214.023 334.817 212.641 C 333.288 210.636,328.189 209.754,324.507 210.858 M341.861 210.782 C 341.484 211.022,341.403 214.988,341.481 229.330 L 341.579 247.574 343.387 247.690 L 345.195 247.806 345.201 235.891 C 345.206 225.070,345.501 220.974,346.055 224.034 C 346.163 224.631,346.536 226.147,346.885 227.402 C 347.233 228.658,347.863 230.971,348.285 232.540 C 349.519 237.128,350.132 239.397,350.961 242.436 C 351.389 244.006,351.858 245.804,352.003 246.432 C 352.260 247.543,352.328 247.574,354.535 247.574 L 356.803 247.574 356.902 229.218 L 357.001 210.863 356.076 210.631 C 353.654 210.023,353.777 209.403,353.568 223.285 C 353.463 230.225,353.280 236.001,353.161 236.119 C 353.042 236.238,352.238 233.555,351.375 230.156 C 350.511 226.758,349.068 221.066,348.166 217.507 C 347.265 213.949,346.356 210.911,346.147 210.757 C 345.636 210.382,342.463 210.400,341.861 210.782 M363.717 210.720 C 363.578 210.859,363.463 219.260,363.463 229.388 L 363.463 247.802 365.652 247.688 L 367.840 247.574 367.943 239.219 C 368.061 229.627,367.774 230.271,371.931 230.263 L 374.881 230.257 374.881 228.559 L 374.881 226.861 371.551 226.751 L 368.221 226.641 368.221 220.362 L 368.221 214.082 371.551 213.972 L 374.881 213.862 374.881 212.164 L 374.881 210.466 369.426 210.466 C 366.426 210.466,363.857 210.580,363.717 210.720 M330.417 214.521 C 331.526 215.525,331.488 242.740,330.376 243.746 C 329.399 244.631,327.102 244.678,326.255 243.830 C 325.360 242.935,325.231 215.588,326.117 214.521 C 326.810 213.686,329.494 213.686,330.417 214.521 M307.183 257.952 C 306.985 258.323,306.551 259.907,306.220 261.473 C 305.888 263.039,305.356 265.519,305.038 266.984 C 304.719 268.449,304.124 271.189,303.714 273.073 C 302.997 276.374,302.228 279.939,300.840 286.394 C 299.573 292.283,299.244 294.169,299.446 294.372 C 299.699 294.624,302.569 294.646,302.569 294.396 C 302.569 294.297,302.899 292.884,303.302 291.256 C 303.705 289.629,304.294 287.098,304.611 285.633 C 304.928 284.167,305.557 281.342,306.009 279.353 C 306.964 275.145,307.786 271.495,308.322 269.077 C 308.531 268.135,309.185 265.224,309.774 262.607 C 310.363 259.990,310.772 257.721,310.681 257.564 C 310.331 256.958,307.550 257.266,307.183 257.952 M317.602 257.988 C 314.904 259.215,314.938 258.980,314.938 276.081 C 314.938 295.063,314.866 294.901,323.061 294.509 C 328.583 294.245,329.569 293.182,329.877 287.160 L 330.081 283.159 327.552 283.159 L 325.024 283.159 325.024 286.525 C 325.024 290.876,322.501 292.978,320.128 290.605 C 319.181 289.658,319.181 262.197,320.128 261.251 C 322.439 258.939,324.963 260.952,325.105 265.222 L 325.214 268.506 327.498 268.506 L 329.781 268.506 329.737 264.574 C 329.688 260.151,329.254 259.141,326.893 257.963 C 325.041 257.039,319.657 257.054,317.602 257.988 M337.664 258.087 C 334.875 259.468,334.919 259.177,334.919 276.043 C 334.919 294.766,334.875 294.657,342.531 294.639 C 347.197 294.627,349.054 293.475,349.768 290.149 C 350.548 286.510,350.099 261.952,349.220 260.180 C 347.801 257.321,341.513 256.182,337.664 258.087 M344.603 261.550 C 345.564 262.923,345.485 289.186,344.516 290.383 C 343.635 291.471,341.358 291.585,340.265 290.596 C 339.172 289.607,339.034 262.596,340.116 261.400 C 341.064 260.352,343.828 260.445,344.603 261.550 M298.074 302.854 C 298.274 303.890,374.990 303.890,375.189 302.854 C 375.311 302.224,373.270 302.188,336.632 302.188 C 299.993 302.188,297.953 302.224,298.074 302.854 M307.511 316.365 C 305.255 317.509,304.507 318.933,304.222 322.624 C 303.903 326.767,304.257 327.383,306.874 327.231 L 308.849 327.117 309.039 323.752 C 309.251 319.997,309.932 318.934,312.126 318.934 C 315.726 318.934,315.907 326.140,312.493 333.493 C 311.691 335.219,310.679 337.420,310.244 338.382 C 309.809 339.345,308.482 342.171,307.295 344.662 C 305.986 347.412,305.063 349.902,304.947 350.999 L 304.756 352.807 312.057 352.807 L 319.359 352.807 319.242 351.189 L 319.125 349.572 314.748 349.382 C 309.662 349.160,309.847 349.458,311.960 344.893 C 312.707 343.280,314.432 339.562,315.794 336.632 C 321.188 325.019,321.099 317.436,315.549 315.894 C 313.063 315.204,309.376 315.420,307.511 316.365 M327.047 315.976 C 326.381 316.190,325.353 316.869,324.764 317.484 L 323.692 318.603 323.591 333.897 C 323.465 353.094,323.411 352.956,330.923 352.956 C 338.421 352.956,338.344 353.150,338.344 334.208 L 338.344 318.961 337.171 317.625 C 335.418 315.628,330.580 314.840,327.047 315.976 M345.836 316.038 C 342.744 317.189,342.078 318.570,342.230 323.522 L 342.341 327.117 344.434 327.117 L 346.527 327.117 346.717 323.752 C 346.929 320.015,347.612 318.934,349.762 318.934 C 353.505 318.934,353.884 325.498,350.558 332.710 C 349.757 334.448,348.715 336.727,348.243 337.774 C 347.772 338.820,346.440 341.646,345.284 344.053 C 343.722 347.307,343.136 348.992,343.001 350.618 L 342.820 352.807 349.929 352.807 L 357.037 352.807 356.920 351.189 L 356.803 349.572 352.622 349.463 C 347.406 349.327,347.513 349.474,349.520 345.169 C 350.441 343.195,351.914 340.038,352.793 338.154 C 357.544 327.972,358.547 322.887,356.634 318.674 C 355.388 315.928,349.797 314.564,345.836 316.038 M364.724 315.907 C 364.057 316.112,362.987 316.916,362.345 317.694 L 361.180 319.108 361.181 334.150 C 361.183 353.068,361.139 352.956,368.601 352.956 C 373.205 352.956,374.968 352.018,375.969 349.039 C 376.687 346.903,376.564 320.871,375.827 319.037 C 374.661 316.133,369.097 314.564,364.724 315.907 M276.220 324.929 L 276.323 333.397 153.004 333.397 L 29.686 333.397 29.686 325.056 C 29.686 318.739,29.801 316.668,30.162 316.522 C 30.423 316.416,85.871 316.359,153.378 316.395 L 276.118 316.461 276.220 324.929 M333.224 319.949 C 333.653 320.514,333.755 323.262,333.765 334.416 L 333.777 348.185 332.775 348.973 C 331.600 349.897,330.093 349.973,329.020 349.163 C 327.776 348.224,327.629 320.897,328.861 319.665 C 329.856 318.670,332.379 318.834,333.224 319.949 M370.527 319.474 C 371.253 320.005,371.933 345.495,371.290 348.079 C 370.878 349.736,368.036 350.257,366.628 348.935 L 365.747 348.107 365.747 334.354 C 365.747 321.039,365.772 320.574,366.523 319.767 C 367.426 318.798,369.404 318.653,370.527 319.474 M297.576 347.862 C 297.237 348.060,296.746 348.739,296.484 349.370 C 295.286 352.263,299.927 354.468,301.404 351.708 C 302.786 349.127,300.074 346.402,297.576 347.862 " stroke="none" fill="#d6d704" fill-rule="evenodd"></path><path id="path1" d="M7.992 160.038 L 7.992 312.084 142.149 312.084 L 276.306 312.084 276.402 246.337 L 276.499 180.590 305.710 180.492 L 334.921 180.395 334.825 94.289 L 334.729 8.183 171.361 8.087 L 7.992 7.992 7.992 160.038 M339.486 105.043 L 339.486 180.400 347.669 180.400 L 355.852 180.400 355.852 105.043 L 355.852 29.686 347.669 29.686 L 339.486 29.686 339.486 105.043 M116.461 38.302 C 128.660 40.663,134.287 47.677,135.860 62.482 C 136.427 67.817,136.393 154.759,135.824 156.393 C 135.102 158.464,132.342 158.743,131.327 156.846 C 131.048 156.326,130.922 140.832,130.919 106.876 C 130.914 54.071,131.005 56.638,128.996 52.364 C 125.533 44.998,119.532 42.245,106.937 42.245 C 90.792 42.245,84.979 46.019,82.547 58.077 C 81.630 62.622,81.770 257.499,82.693 261.656 C 85.205 272.969,91.612 276.920,107.326 276.846 C 118.741 276.792,125.142 273.728,128.728 266.601 C 131.001 262.082,130.923 263.516,130.923 226.297 L 130.923 192.198 119.581 192.198 C 107.133 192.198,107.326 192.234,107.326 189.885 C 107.326 187.571,107.046 187.612,122.214 187.721 L 136.061 187.821 136.178 219.410 C 136.323 258.712,136.101 261.942,132.768 269.002 C 130.156 274.537,125.034 278.644,118.934 280.095 C 117.888 280.344,116.261 280.744,115.319 280.984 C 111.782 281.885,98.887 281.493,94.630 280.355 C 84.170 277.561,79.364 271.800,77.440 259.753 C 76.631 254.687,76.619 64.366,77.427 59.182 C 79.970 42.863,88.899 36.758,109.039 37.567 C 111.551 37.668,114.891 37.999,116.461 38.302 M177.943 38.232 C 180.326 40.615,178.968 50.999,176.273 50.999 C 173.131 50.999,172.121 38.914,175.161 37.692 C 176.514 37.149,176.943 37.232,177.943 38.232 M264.907 38.448 C 266.494 39.298,266.605 41.342,265.119 42.335 C 264.889 42.489,259.367 42.617,252.849 42.620 C 241.752 42.626,240.941 42.672,240.099 43.354 L 239.201 44.081 239.104 162.280 L 239.007 280.480 238.097 281.075 C 236.978 281.809,235.411 281.489,234.625 280.367 C 234.132 279.663,234.063 265.023,234.063 161.688 L 234.063 43.811 233.217 43.219 C 232.495 42.713,230.632 42.626,220.540 42.626 C 208.021 42.626,207.771 42.592,207.246 40.825 C 207.062 40.205,207.253 39.715,207.951 39.017 L 208.909 38.059 236.544 38.059 C 254.653 38.059,264.430 38.193,264.907 38.448 M178.088 59.994 L 178.877 60.997 178.877 170.953 L 178.877 280.910 177.943 281.844 C 176.820 282.967,175.844 283.028,174.638 282.051 L 173.739 281.323 173.739 170.885 L 173.739 60.447 174.638 59.719 C 175.890 58.705,177.154 58.806,178.088 59.994 M280.970 278.495 L 281.066 372.027 336.632 372.027 L 392.198 372.027 392.198 278.592 L 392.198 185.157 336.536 185.061 L 280.874 184.964 280.970 278.495 M312.840 211.172 C 315.218 212.295,315.890 213.827,315.890 218.134 L 315.890 221.884 313.606 221.884 L 311.323 221.884 311.323 218.721 C 311.323 214.920,310.688 213.888,308.358 213.897 C 305.294 213.910,305.233 214.208,305.233 229.115 C 305.233 243.933,305.310 244.320,308.253 244.333 C 310.608 244.343,311.323 243.221,311.323 239.515 L 311.323 236.346 313.606 236.346 L 315.890 236.346 315.890 240.096 C 315.890 246.100,314.220 247.778,308.278 247.745 C 304.643 247.725,302.952 247.116,301.651 245.358 C 300.494 243.795,300.203 215.987,301.319 213.661 C 302.849 210.473,308.688 209.211,312.840 211.172 M332.343 210.865 C 333.246 211.116,334.146 211.762,334.817 212.641 L 335.871 214.023 335.871 229.102 C 335.871 242.996,335.817 244.264,335.184 245.230 C 332.728 248.979,323.279 248.797,321.461 244.966 C 320.608 243.170,320.516 215.768,321.356 213.784 C 322.604 210.836,327.528 209.528,332.343 210.865 M346.147 210.757 C 346.356 210.911,347.265 213.949,348.166 217.507 C 349.068 221.066,350.511 226.758,351.375 230.156 C 352.238 233.555,353.042 236.238,353.161 236.119 C 353.280 236.001,353.463 230.225,353.568 223.285 C 353.777 209.403,353.654 210.023,356.076 210.631 L 357.001 210.863 356.902 229.218 L 356.803 247.574 354.535 247.574 C 352.328 247.574,352.260 247.543,352.003 246.432 C 351.858 245.804,351.389 244.006,350.961 242.436 C 350.132 239.397,349.519 237.128,348.285 232.540 C 347.863 230.971,347.233 228.658,346.885 227.402 C 346.536 226.147,346.163 224.631,346.055 224.034 C 345.501 220.974,345.206 225.070,345.201 235.891 L 345.195 247.806 343.387 247.690 L 341.579 247.574 341.481 229.330 C 341.403 214.988,341.484 211.022,341.861 210.782 C 342.463 210.400,345.636 210.382,346.147 210.757 M374.881 212.164 L 374.881 213.862 371.551 213.972 L 368.221 214.082 368.221 220.362 L 368.221 226.641 371.551 226.751 L 374.881 226.861 374.881 228.559 L 374.881 230.257 371.931 230.263 C 367.774 230.271,368.061 229.627,367.943 239.219 L 367.840 247.574 365.652 247.688 L 363.463 247.802 363.463 229.388 C 363.463 219.260,363.578 210.859,363.717 210.720 C 363.857 210.580,366.426 210.466,369.426 210.466 L 374.881 210.466 374.881 212.164 M326.117 214.521 C 325.231 215.588,325.360 242.935,326.255 243.830 C 327.102 244.678,329.399 244.631,330.376 243.746 C 331.488 242.740,331.526 215.525,330.417 214.521 C 329.494 213.686,326.810 213.686,326.117 214.521 M310.681 257.564 C 310.772 257.721,310.363 259.990,309.774 262.607 C 309.185 265.224,308.531 268.135,308.322 269.077 C 307.786 271.495,306.964 275.145,306.009 279.353 C 305.557 281.342,304.928 284.167,304.611 285.633 C 304.294 287.098,303.705 289.629,303.302 291.256 C 302.899 292.884,302.569 294.297,302.569 294.396 C 302.569 294.646,299.699 294.624,299.446 294.372 C 299.244 294.169,299.573 292.283,300.840 286.394 C 302.228 279.939,302.997 276.374,303.714 273.073 C 304.124 271.189,304.719 268.449,305.038 266.984 C 305.356 265.519,305.888 263.039,306.220 261.473 C 307.044 257.580,307.246 257.279,309.030 257.279 C 309.848 257.279,310.591 257.407,310.681 257.564 M326.893 257.963 C 329.254 259.141,329.688 260.151,329.737 264.574 L 329.781 268.506 327.498 268.506 L 325.214 268.506 325.105 265.222 C 324.963 260.952,322.439 258.939,320.128 261.251 C 319.181 262.197,319.181 289.658,320.128 290.605 C 322.501 292.978,325.024 290.876,325.024 286.525 L 325.024 283.159 327.552 283.159 L 330.081 283.159 329.877 287.160 C 329.569 293.182,328.583 294.245,323.061 294.509 C 319.111 294.698,316.755 294.018,315.635 292.369 C 314.668 290.943,314.554 261.540,315.509 259.750 C 316.753 257.419,323.637 256.339,326.893 257.963 M346.937 258.000 C 349.864 259.330,349.936 259.716,350.066 274.941 C 350.183 288.606,349.972 291.391,348.710 292.785 C 346.185 295.575,337.773 295.280,335.789 292.332 C 334.676 290.678,334.399 262.053,335.476 259.971 C 336.789 257.430,343.240 256.321,346.937 258.000 M340.116 261.400 C 339.034 262.596,339.172 289.607,340.265 290.596 C 341.358 291.585,343.635 291.471,344.516 290.383 C 345.485 289.186,345.564 262.923,344.603 261.550 C 343.828 260.445,341.064 260.352,340.116 261.400 M375.189 302.854 C 375.068 303.483,372.928 303.520,336.632 303.520 C 300.335 303.520,298.196 303.483,298.074 302.854 C 297.953 302.224,299.993 302.188,336.632 302.188 C 373.270 302.188,375.311 302.224,375.189 302.854 M315.549 315.894 C 321.099 317.436,321.188 325.019,315.794 336.632 C 309.158 350.916,309.303 349.145,314.748 349.382 L 319.125 349.572 319.242 351.189 L 319.359 352.807 312.057 352.807 L 304.756 352.807 304.947 350.999 C 305.063 349.902,305.986 347.412,307.295 344.662 C 308.482 342.171,309.809 339.345,310.244 338.382 C 310.679 337.420,311.691 335.219,312.493 333.493 C 315.907 326.140,315.726 318.934,312.126 318.934 C 309.932 318.934,309.251 319.997,309.039 323.752 L 308.849 327.117 306.874 327.231 C 304.257 327.383,303.903 326.767,304.222 322.624 C 304.685 316.622,308.981 314.070,315.549 315.894 M334.602 315.901 C 335.385 316.118,336.513 316.875,337.171 317.625 L 338.344 318.961 338.344 334.208 C 338.344 353.150,338.421 352.956,330.923 352.956 C 323.411 352.956,323.465 353.094,323.591 333.897 L 323.692 318.603 324.764 317.484 C 326.515 315.658,331.080 314.923,334.602 315.901 M354.645 316.419 C 356.504 317.392,357.356 319.554,357.361 323.311 C 357.367 327.659,356.740 329.696,352.793 338.154 C 346.928 350.723,346.950 349.315,352.622 349.463 L 356.803 349.572 356.920 351.189 L 357.037 352.807 349.929 352.807 L 342.820 352.807 343.001 350.618 C 343.136 348.992,343.722 347.307,345.284 344.053 C 346.440 341.646,347.772 338.820,348.243 337.774 C 348.715 336.727,349.757 334.448,350.558 332.710 C 353.884 325.498,353.505 318.934,349.762 318.934 C 347.612 318.934,346.929 320.015,346.717 323.752 L 346.527 327.117 344.434 327.117 L 342.341 327.117 342.230 323.522 C 342.078 318.570,342.744 317.189,345.836 316.038 C 347.801 315.307,352.945 315.529,354.645 316.419 M373.887 316.671 C 376.330 318.338,376.403 318.849,376.403 334.109 C 376.403 352.423,376.183 352.956,368.601 352.956 C 361.139 352.956,361.183 353.068,361.181 334.150 L 361.180 319.108 362.345 317.694 C 364.354 315.258,370.958 314.672,373.887 316.671 M30.162 316.522 C 29.801 316.668,29.686 318.739,29.686 325.056 L 29.686 333.397 153.004 333.397 L 276.323 333.397 276.220 324.929 L 276.118 316.461 153.378 316.395 C 85.871 316.359,30.423 316.416,30.162 316.522 M328.861 319.665 C 327.629 320.897,327.776 348.224,329.020 349.163 C 330.093 349.973,331.600 349.897,332.775 348.973 L 333.777 348.185 333.765 334.416 C 333.752 319.075,333.806 319.400,331.187 319.048 C 329.981 318.886,329.515 319.010,328.861 319.665 M366.523 319.767 C 365.772 320.574,365.747 321.039,365.747 334.354 L 365.747 348.107 366.628 348.935 C 368.036 350.257,370.878 349.736,371.290 348.079 C 371.933 345.495,371.253 320.005,370.527 319.474 C 369.404 318.653,367.426 318.798,366.523 319.767 M301.032 348.312 C 302.993 350.417,300.861 353.822,298.212 352.814 C 296.660 352.224,295.916 350.742,296.484 349.370 C 297.322 347.347,299.632 346.809,301.032 348.312 " stroke="none" fill="#0c0c1c" fill-rule="evenodd"></path></g></svg>