<svg xmlns="http://www.w3.org/2000/svg" width="400" height="260.963"><g fill-rule="evenodd"><path d="M18.538 116.84v89.949h18.538v18.798H261.88v-48.302h91.906V55.875H261.88V45.692h-18.27l-.069-9.334-.068-9.335-112.468-.065-112.467-.066v89.948m221.086-73.563l.068 12.337h-22.305c-12.268 0-22.491.071-22.718.158-.375.144-.413 5.758-.413 60.965v60.806l22.65.067 22.65.066.068 12.598.068 12.598H22.454V30.809l108.551.065 108.551.066.068 12.337m18.283 9.399l.074 2.938h-14.117V49.6l6.985.069 6.984.07.074 2.937M83.681 56.178c-3.22.896-5.603 2.732-6.891 5.311-.598 1.197-.784 1.772-1.394 4.307-.4 1.664-.594 94.136-.207 98.825.265 3.219.714 5.625 1.126 6.036.102.103.186.355.186.559 0 .731 2.177 3.459 3.363 4.216 5.714 3.642 16.982 3.049 21.207-1.116 3.457-3.408 3.646-4.781 3.565-25.888l-.067-17.488H90.47v1.828l5.744.143c3.159.079 5.774.167 5.809.196.247.198.024 34.597-.228 35.223-2.21 5.486-5.367 7.288-12.351 7.048-7.453-.256-10.393-2.265-11.457-7.827-.374-1.957-.453-99.502-.083-101.624 1.008-5.766 4.418-7.964 12.357-7.964 5.678 0 8.239 1.048 10.299 4.213 1.585 2.435 1.529 1.405 1.529 28.07 0 26.369-.035 25.681 1.28 25.681 1.423 0 1.365 1.157 1.259-25.492-.115-28.49-.03-27.694-3.332-31.277-2.923-3.171-11.63-4.644-17.615-2.98m40.224.016c-.506.723-.56 4.815-.072 5.441 1.285 1.648 2.277.464 2.277-2.717 0-3.078-1.049-4.374-2.205-2.724m16.741.114c-.285.285-.202 1.264.137 1.603.226.226 1.98.314 6.248.314 6.128 0 6.751.103 6.757 1.128.001.169 0 26.585-.002 58.702s.07 58.586.159 58.819c.258.671 1.064.995 1.669.672.519-.279.522-.547.522-59.034 0-59.464 0-59.495.887-60.088.158-.105 2.946-.193 6.196-.195 6.356-.005 6.633-.063 6.449-1.361l-.086-.602-14.38-.067c-7.909-.037-14.459.012-14.556.109m209.159 60.337l-.066 57.115-75.43.066c-55.542.048-75.523-.012-75.783-.228-.369-.306-.562-112.7-.195-113.655.144-.375 7.07-.413 75.849-.413h75.691l-.066 57.115M124.066 66.923l-.567.604v54.821c0 49.194.041 54.88.406 55.401.494.704 1.191.745 1.773.103.644-.712.669-110.034.025-110.953-.517-.739-.926-.733-1.637.024M224.282 79.09c-4.292.736-4.435 1.255-4.437 16.029-.002 16.111.032 16.194 6.656 16.224 5.581.024 6.912-1.407 6.918-7.442.002-2.093-.294-2.38-2.355-2.283l-1.691.079-.062 1.175c-.194 3.633-.372 4.503-1.045 5.127-.908.841-2.395.836-3.382-.013l-.733-.63-.073-11.77c-.087-14.104-.15-13.814 2.944-13.555 1.604.135 2.05.983 2.177 4.138.087 2.176.175 2.609.531 2.635 3.582.266 3.569.278 3.518-3.287-.077-5.486-2.852-7.475-8.966-6.427m80.157-.011c-1.455.233-1.973.518-3.134 1.723l-.913.95-.074 12.975-.074 12.975.596 1.16c1.048 2.039 2.374 2.593 6.266 2.615 4.766.027 6.208-1.301 6.417-5.909.183-4.028.176-4.04-2.108-3.947l-1.885.076-.131 2.786c-.182 3.891-1.894 5.374-4.177 3.62l-.653-.501-.073-12.111c-.083-13.951-.154-13.507 2.16-13.507 2.305 0 2.743.686 2.743 4.295 0 1.803.091 2.503.327 2.528 3.668.382 3.851.246 3.85-2.85-.004-5.875-2.705-7.908-9.137-6.878m-64.533.561c-2.475 1.308-2.571 1.895-2.563 15.738.009 15.651.067 15.805 5.999 16.054 7.297.306 7.441-.003 7.441-15.871 0-14.343-.104-14.918-2.925-16.096-1.381-.577-6.752-.459-7.952.175m15.882-.354c-.096.096-.174 7.266-.174 15.934v15.759l.715.272c.393.15 1.098.2 1.566.112l.852-.16v-10.024c0-11.759.177-12.436 1.712-6.531 1.029 3.96 2.504 9.523 2.976 11.227.119.43.49 1.804.823 3.052.653 2.445.763 2.554 2.583 2.554.502 0 1.179-.071 1.503-.158l.589-.158-.067-15.961-.067-15.961h-2.872l-.068 11.162c-.038 6.139-.156 11.162-.264 11.162-.107 0-.412-.964-.677-2.143a70.22 70.22 0 00-.866-3.459c-.407-1.391-.61-2.173-1.225-4.712-1.065-4.39-2.809-11.036-3.032-11.553-.253-.586-3.5-.921-4.007-.414m19.065-.005c-.098.099-.179 7.314-.179 16.035 0 17.811-.212 16.172 2.091 16.172 2.138 0 2.086.2 2.086-7.973v-7.153l2.801-.074c2.794-.074 2.802-.076 3.053-.792.604-1.72.059-2.145-2.854-2.229-3.287-.096-3.046.361-3.011-5.693.035-6.032-.224-5.58 3.205-5.586 2.809-.004 3.25-.348 2.647-2.064l-.239-.681-4.71-.071c-2.59-.039-4.791.01-4.89.109m18.781.288c-.144.49-1.06 4.574-1.507 6.723a348.796 348.796 0 01-1.265 5.875c-.759 3.405-.954 4.323-1.308 6.136a106.51 106.51 0 01-.773 3.525 119.32 119.32 0 00-.78 3.524 67.952 67.952 0 01-.539 2.481 24.352 24.352 0 00-.354 1.697c-.07.431-.202.978-.294 1.215-.203.526 1.026.875 2.186.62.726-.159.774-.275 1.579-3.741.456-1.967.933-3.988 1.059-4.491.126-.502.37-1.619.541-2.48.172-.862.416-1.978.543-2.481.127-.502.643-2.793 1.148-5.091a627.446 627.446 0 011.162-5.222c.135-.574.427-1.837.648-2.807.222-.969.591-2.53.819-3.469.554-2.273.45-2.471-1.303-2.471-1.134 0-1.455.094-1.562.457m26.476.131c-2.278 1.163-2.225.791-2.225 15.6 0 16.327-.145 15.928 5.878 16.144 7.301.261 7.345.16 7.249-16.502l-.072-12.605-.735-1.111c-1.433-2.163-7.155-3.029-10.095-1.526m-74.276 2.925l.641.641v24.07l-.691.64c-1.357 1.258-3.531.739-4.018-.961-.331-1.154-.331-22.276 0-23.43.487-1.7 2.786-2.243 4.068-.96m80.391.172l.683.812-.073 11.83-.073 11.83-.633.674c-.918.977-2.881.97-3.656-.015-.529-.673-.541-.943-.541-12.675V83.266l.641-.641c.992-.991 2.742-.909 3.652.172m-94.209 40.054c-2.755.757-3.664 2.614-3.51 7.175l.084 2.481 2.024.076 2.023.076v-2.77c0-3.115.19-3.667 1.441-4.19 4.141-1.73 5.001 5.015 1.567 12.291a229.335 229.335 0 00-1.69 3.655c-.32.718-.968 2.128-1.44 3.133a355.596 355.596 0 00-1.513 3.264c-.359.79-.968 2.097-1.352 2.905-.527 1.108-.68 1.784-.619 2.742l.081 1.272 6.065.07 6.064.07.156-.621c.086-.342.118-1.02.071-1.507l-.084-.884-3.851-.072c-3.155-.06-3.852-.141-3.852-.451 0-.416.66-1.89 4.498-10.052 3.244-6.898 3.574-8.005 3.587-12.036.02-6.003-3.446-8.358-9.75-6.627m16.566-.074c-3.456.876-3.673 1.83-3.673 16.126 0 15.879.131 16.188 6.892 16.188 3.531 0 5.192-.778 6.055-2.838.719-1.717.526-25.721-.219-27.198-1.078-2.137-5.359-3.214-9.055-2.278m16.137.069c-2.633.847-3.42 2.478-3.305 6.849l.074 2.812 1.893.076 1.893.077.015-2.296c.025-3.99 1.213-5.578 3.584-4.795 1.413.466 1.623 1.058 1.623 4.561 0 3.544-.014 3.594-2.352 8.643a565.667 565.667 0 00-1.62 3.525c-.292.646-1.086 2.35-1.765 3.786-2.811 5.947-2.916 6.228-2.83 7.588l.081 1.289h12.272v-2.872l-3.982-.072c-2.19-.04-3.981-.176-3.981-.302s.23-.681.511-1.233.916-1.885 1.412-2.962a898.74 898.74 0 012.23-4.795c.731-1.56 1.33-2.87 1.33-2.911 0-.042.451-1.056 1.003-2.255 1.52-3.301 1.738-4.35 1.738-8.357v-3.566l-.8-1.004c-1.556-1.95-5.862-2.803-9.024-1.786m16.874-.086c-3.601.969-3.64 1.125-3.74 14.78-.088 12.015.062 14.523.939 15.698 1.943 2.602 9.267 2.561 11.389-.064l.811-1.003V125.68l-.653-.964c-1.275-1.883-5.503-2.828-8.746-1.956m-28.927 2.824c.174.002.556.261.849.575.771.828.842 24.656.075 25.347-1.241 1.118-3.459.878-4.086-.443-.439-.925-.608-22.625-.188-24.17.206-.762 1.739-1.644 2.512-1.446.287.073.664.135.838.137m33.429.317c1.049.87 1.111 1.597 1.111 13.059-.001 9.99-.044 11.126-.457 11.948-.813 1.616-3.587 1.786-4.372.268-.464-.896-.595-23.196-.144-24.382.499-1.312 2.733-1.829 3.862-.893m-63.997 25.179c-1.56 1.56-.449 3.986 1.834 4.003 1.906.015 2.97-1.862 2.057-3.628-.682-1.319-2.748-1.518-3.891-.375m35.735 48.528v21.932l-108.294.066-108.294.066.069-7.377.07-7.376 101.029-.066c80.426-.052 101.071-.132 101.236-.391.114-.18.209-6.681.211-14.447.002-7.767.084-14.201.183-14.299.098-.099 3.241-.148 6.984-.109l6.806.069v21.932" fill="#d3d304"/><path d="M22.454 116.84v86.032h217.238l-.068-12.598-.068-12.598-22.65-.066-22.65-.067v-60.806c0-55.207.038-60.821.413-60.965.227-.087 10.45-.158 22.718-.158h22.305l-.068-12.337-.068-12.337-108.551-.066-108.551-.065v86.031m221.41-64.233v3.007h14.117l-.074-2.938-.074-2.937-6.984-.07-6.985-.069v3.007m-148.52 3.429c4.802 1.226 7.17 3.465 8.648 8.177.523 1.669.54 2.352.636 26.222.106 26.649.164 25.492-1.259 25.492-1.315 0-1.28.688-1.28-25.681 0-26.665.056-25.635-1.529-28.07-2.06-3.165-4.621-4.213-10.299-4.213-7.939 0-11.349 2.198-12.357 7.964-.37 2.122-.291 99.667.083 101.624 1.064 5.562 4.004 7.571 11.457 7.827 6.984.24 10.141-1.562 12.351-7.048.252-.626.475-35.025.228-35.223-.035-.029-2.65-.117-5.809-.196l-5.744-.143v-1.828h14.099l.067 17.488c.081 21.107-.108 22.48-3.565 25.888-4.225 4.165-15.493 4.758-21.207 1.116-1.186-.757-3.363-3.485-3.363-4.216 0-.204-.084-.456-.186-.559-.412-.411-.861-2.817-1.126-6.036-.387-4.689-.193-97.161.207-98.825.61-2.535.796-3.11 1.394-4.307 2.435-4.876 10.981-7.388 18.554-5.453m30.288.01c.731.661.701 5.088-.039 5.828-1.202 1.202-2.075-.001-2.086-2.873-.011-3.025.801-4.154 2.125-2.955m44.036.822c.184 1.298-.093 1.356-6.449 1.361-3.25.002-6.038.09-6.196.195-.887.593-.887.624-.887 60.088 0 58.487-.003 58.755-.522 59.034-.605.323-1.411-.001-1.669-.672-.089-.233-.161-26.702-.159-58.819.002-32.117.003-58.533.002-58.702-.006-1.025-.629-1.128-6.757-1.128-6.239 0-6.561-.059-6.561-1.184 0-.92-.144-.912 14.732-.842l14.38.067.086.602m28.663 3.075c-.367.955-.174 113.349.195 113.655.26.216 20.241.276 75.783.228l75.43-.066.066-57.115.066-57.115H274.18c-68.779 0-75.705.038-75.849.413m-72.628 6.956c.644.919.619 110.241-.025 110.953-.582.642-1.279.601-1.773-.103-.365-.521-.406-6.207-.406-55.401V67.527l.567-.604c.711-.757 1.12-.763 1.637-.024m104.78 12.615c2.066.864 2.712 2.266 2.765 6.003.051 3.565.064 3.553-3.518 3.287-.356-.026-.444-.459-.531-2.635-.127-3.155-.573-4.003-2.177-4.138-3.094-.259-3.031-.549-2.944 13.555l.073 11.77.733.63c.987.849 2.474.854 3.382.013.673-.624.851-1.494 1.045-5.127l.062-1.175 1.691-.079c2.061-.097 2.357.19 2.355 2.283-.006 6.035-1.337 7.466-6.918 7.442-6.624-.03-6.658-.113-6.656-16.224.002-13.392.195-14.562 2.57-15.541 1.869-.772 6.29-.806 8.068-.064m80.35-.028c1.974.825 2.74 2.633 2.743 6.471.001 3.096-.182 3.232-3.85 2.85-.236-.025-.327-.725-.327-2.528 0-3.609-.438-4.295-2.743-4.295-2.314 0-2.243-.444-2.16 13.507l.073 12.111.653.501c2.283 1.754 3.995.271 4.177-3.62l.131-2.786 1.885-.076c2.284-.093 2.291-.081 2.108 3.947-.209 4.608-1.651 5.936-6.417 5.909-3.892-.022-5.218-.576-6.266-2.615l-.596-1.16.074-12.975.074-12.975.913-.95c1.824-1.895 6.573-2.551 9.528-1.316m-62.975-.021c2.821 1.178 2.925 1.753 2.925 16.096 0 15.868-.144 16.177-7.441 15.871-5.932-.249-5.99-.403-5.999-16.054-.008-13.843.088-14.43 2.563-15.738 1.2-.634 6.571-.752 7.952-.175m11.937.235c.223.517 1.967 7.163 3.032 11.553.615 2.539.818 3.321 1.225 4.712.212.724.602 2.281.866 3.459.265 1.179.57 2.143.677 2.143.108 0 .226-5.023.264-11.162l.068-11.162h2.872l.067 15.961.067 15.961-.589.158c-.324.087-1.001.158-1.503.158-1.82 0-1.93-.109-2.583-2.554a503.07 503.07 0 00-.823-3.052c-.472-1.704-1.947-7.267-2.976-11.227-1.535-5.905-1.712-5.228-1.712 6.531v10.024l-.852.16c-.468.088-1.173.038-1.566-.112l-.715-.272V95.22c0-8.668.078-15.838.174-15.934.507-.507 3.754-.172 4.007.414m24.897.224c.603 1.716.162 2.06-2.647 2.064-3.429.006-3.17-.446-3.205 5.586-.035 6.054-.276 5.597 3.011 5.693 2.913.084 3.458.509 2.854 2.229-.251.716-.259.718-3.053.792l-2.801.074v7.153c0 8.173.052 7.973-2.086 7.973-2.303 0-2.091 1.639-2.091-16.172 0-8.721.081-15.936.179-16.035.099-.099 2.3-.148 4.89-.109l4.71.071.239.681m12.077-.43c.08.21-.041 1.15-.27 2.089-.228.939-.597 2.5-.819 3.469-.221.97-.513 2.233-.648 2.807-.135.574-.658 2.924-1.162 5.222-.505 2.298-1.021 4.589-1.148 5.091a64.824 64.824 0 00-.543 2.481 65.242 65.242 0 01-.541 2.48c-.126.503-.603 2.524-1.059 4.491-.805 3.466-.853 3.582-1.579 3.741-1.16.255-2.389-.094-2.186-.62.092-.237.224-.784.294-1.215.069-.431.228-1.194.354-1.697.125-.503.368-1.619.539-2.481.172-.861.523-2.447.78-3.524s.605-2.664.773-3.525c.354-1.813.549-2.731 1.308-6.136.549-2.468.747-3.387 1.265-5.875.447-2.149 1.363-6.233 1.507-6.723.179-.607 2.905-.672 3.135-.075m31.608.126c.687.312 1.365.908 1.828 1.606l.735 1.111.072 12.605c.081 13.954.063 14.117-1.704 15.507-2.59 2.037-9.718 1.199-10.957-1.288-.772-1.551-.709-26.313.071-27.829 1.113-2.162 6.807-3.141 9.955-1.712m-85.893 2.735c-.869.659-.97 1.999-.97 12.945 0 10.947.101 12.286.97 12.946.792.6 2.513.46 3.3-.27l.691-.64v-24.07l-.641-.641c-.733-.733-2.547-.88-3.35-.27m80.089.27l-.641.641v11.987c0 11.732.012 12.002.541 12.675.775.985 2.738.992 3.656.015l.633-.674.073-11.83.073-11.83-.683-.812c-.91-1.081-2.66-1.163-3.652-.172m-84.297 40.214c2.632.781 3.504 2.441 3.49 6.639-.013 4.031-.343 5.138-3.587 12.036-3.838 8.162-4.498 9.636-4.498 10.052 0 .31.697.391 3.852.451l3.851.072.084.884c.047.487.015 1.165-.071 1.507l-.156.621-6.064-.07-6.065-.07-.081-1.272c-.061-.958.092-1.634.619-2.742.384-.808.993-2.115 1.352-2.905.36-.79 1.04-2.259 1.513-3.264a216.05 216.05 0 001.44-3.133c.319-.718 1.08-2.363 1.69-3.655 2.798-5.928 2.855-11.948.117-12.496-2.283-.456-3.125.728-3.125 4.395v2.77l-2.023-.076-2.024-.076-.084-2.481c-.154-4.561.755-6.418 3.51-7.175 1.726-.474 4.684-.48 6.26-.012m17.513.426c2.481 1.23 2.436.94 2.436 15.531 0 13.506-.014 13.659-1.352 14.912-2.114 1.981-8.513 1.948-10.51-.053-1.379-1.382-1.454-2.148-1.454-14.752 0-12.829.057-13.365 1.584-14.898 1.669-1.673 6.619-2.067 9.296-.74m16.149-.134c.553.274 1.365.95 1.805 1.501l.8 1.004v3.566c0 4.007-.218 5.056-1.738 8.357-.552 1.199-1.003 2.213-1.003 2.255 0 .041-.599 1.351-1.33 2.911a898.74 898.74 0 00-2.23 4.795 110.847 110.847 0 01-1.412 2.962c-.281.552-.511 1.107-.511 1.233 0 .126 1.791.262 3.981.302l3.982.072v2.872H262.01l-.081-1.289c-.086-1.36.019-1.641 2.83-7.588.679-1.436 1.473-3.14 1.765-3.786.293-.647 1.021-2.233 1.62-3.525 2.338-5.049 2.352-5.099 2.352-8.643 0-3.503-.21-4.095-1.623-4.561-2.371-.783-3.559.805-3.584 4.795l-.015 2.296-1.893-.077-1.893-.076-.074-2.812c-.115-4.371.672-6.002 3.305-6.849 1.713-.551 5.866-.387 7.219.285m16.574.047c.658.322 1.462.998 1.827 1.538l.653.964v26.491l-.811 1.003c-2.122 2.625-9.446 2.666-11.389.064-1.139-1.527-1.488-26.101-.398-28.094 1.378-2.52 6.818-3.577 10.118-1.966m-38.113 2.599c-1.272.651-1.258.503-1.287 13.087-.031 13.663.063 14.041 3.301 13.233 1.719-.429 1.634.258 1.634-13.185 0-13.094-.023-13.313-1.381-13.328a4.592 4.592 0 01-.838-.137c-.288-.074-.93.074-1.429.33m32.814-.047c-1.19.666-1.229 1.086-1.229 13.203 0 12.896-.005 12.854 1.716 13.177 1.448.271 2.521-.152 3.049-1.202.609-1.212.704-22.398.106-23.828-.647-1.547-2.237-2.137-3.642-1.35m-58.029 24.824c.541.207 1.187 1.451 1.187 2.285 0 2.335-3.545 3.118-4.657 1.029-1.123-2.107 1.095-4.226 3.47-3.314m18.859 27.162c-.099.098-.181 6.532-.183 14.299-.002 7.766-.097 14.267-.211 14.447-.165.259-20.81.339-101.236.391l-101.029.066-.07 7.376-.069 7.377 108.294-.066 108.294-.066v-43.864l-6.806-.069c-3.743-.039-6.886.01-6.984.109" fill="#0c0c1c"/></g></svg>